<mxfile host="app.diagrams.net" modified="2023-12-23T06:59:10.015Z" agent="Mozilla/5.0 (Windows NT 10.0; Win64; x64) AppleWebKit/537.36 (KHTML, like Gecko) Chrome/118.0.0.0 YaBrowser/23.11.0.0 Safari/537.36" etag="uKelMgJBKbef2uWDLNa1" version="22.1.11" type="device">
  <diagram name="Страница — 1" id="jXAIC3h8T8lOYGHdjGl0">
    <mxGraphModel dx="2815" dy="1421" grid="1" gridSize="10" guides="1" tooltips="1" connect="1" arrows="1" fold="1" page="1" pageScale="1" pageWidth="827" pageHeight="1169" math="0" shadow="0">
      <root>
        <mxCell id="0" />
        <mxCell id="1" parent="0" />
        <mxCell id="D_RxxuXNZ5vkz4Wd13xl-3" style="edgeStyle=orthogonalEdgeStyle;rounded=0;orthogonalLoop=1;jettySize=auto;html=1;exitX=0.5;exitY=1;exitDx=0;exitDy=0;entryX=0.5;entryY=0;entryDx=0;entryDy=0;" edge="1" parent="1" source="D_RxxuXNZ5vkz4Wd13xl-1" target="D_RxxuXNZ5vkz4Wd13xl-2">
          <mxGeometry relative="1" as="geometry" />
        </mxCell>
        <mxCell id="D_RxxuXNZ5vkz4Wd13xl-1" value="Start" style="ellipse;whiteSpace=wrap;html=1;fillColor=#B0E3DA;" vertex="1" parent="1">
          <mxGeometry x="100" y="20" width="120" height="80" as="geometry" />
        </mxCell>
        <mxCell id="D_RxxuXNZ5vkz4Wd13xl-7" style="edgeStyle=orthogonalEdgeStyle;rounded=0;orthogonalLoop=1;jettySize=auto;html=1;exitX=0.5;exitY=1;exitDx=0;exitDy=0;entryX=0.5;entryY=0;entryDx=0;entryDy=0;" edge="1" parent="1" source="D_RxxuXNZ5vkz4Wd13xl-2" target="D_RxxuXNZ5vkz4Wd13xl-6">
          <mxGeometry relative="1" as="geometry" />
        </mxCell>
        <mxCell id="D_RxxuXNZ5vkz4Wd13xl-2" value="filterLength = 3&lt;br&gt;i = 0&lt;br&gt;massiveLength&amp;nbsp;: int&lt;br&gt;inputMassive = new str [massiveLength]&lt;br&gt;resultLength = 0&amp;nbsp;" style="shape=parallelogram;perimeter=parallelogramPerimeter;whiteSpace=wrap;html=1;fixedSize=1;fillColor=#F2FCFF;" vertex="1" parent="1">
          <mxGeometry x="12" y="130" width="296" height="80" as="geometry" />
        </mxCell>
        <mxCell id="D_RxxuXNZ5vkz4Wd13xl-11" style="edgeStyle=orthogonalEdgeStyle;rounded=0;orthogonalLoop=1;jettySize=auto;html=1;" edge="1" parent="1" source="D_RxxuXNZ5vkz4Wd13xl-4">
          <mxGeometry relative="1" as="geometry">
            <mxPoint x="306" y="430" as="targetPoint" />
          </mxGeometry>
        </mxCell>
        <mxCell id="D_RxxuXNZ5vkz4Wd13xl-21" style="edgeStyle=orthogonalEdgeStyle;rounded=0;orthogonalLoop=1;jettySize=auto;html=1;entryX=0.5;entryY=0;entryDx=0;entryDy=0;" edge="1" parent="1" source="D_RxxuXNZ5vkz4Wd13xl-4" target="D_RxxuXNZ5vkz4Wd13xl-20">
          <mxGeometry relative="1" as="geometry" />
        </mxCell>
        <mxCell id="D_RxxuXNZ5vkz4Wd13xl-4" value="while i &amp;lt; massiveLength" style="rhombus;whiteSpace=wrap;html=1;fillColor=#CCFFCC;" vertex="1" parent="1">
          <mxGeometry x="80" y="350" width="160" height="160" as="geometry" />
        </mxCell>
        <mxCell id="D_RxxuXNZ5vkz4Wd13xl-10" style="edgeStyle=orthogonalEdgeStyle;rounded=0;orthogonalLoop=1;jettySize=auto;html=1;exitX=0.5;exitY=1;exitDx=0;exitDy=0;entryX=0.5;entryY=0;entryDx=0;entryDy=0;" edge="1" parent="1" source="D_RxxuXNZ5vkz4Wd13xl-6" target="D_RxxuXNZ5vkz4Wd13xl-4">
          <mxGeometry relative="1" as="geometry" />
        </mxCell>
        <mxCell id="D_RxxuXNZ5vkz4Wd13xl-6" value="Ввод с клавиатуры длины massiveLength начального массива inputMassive" style="rounded=0;whiteSpace=wrap;html=1;fillColor=#FFE6CC;" vertex="1" parent="1">
          <mxGeometry x="10" y="240" width="299" height="60" as="geometry" />
        </mxCell>
        <mxCell id="D_RxxuXNZ5vkz4Wd13xl-12" value="Yes" style="text;html=1;align=center;verticalAlign=middle;resizable=0;points=[];autosize=1;strokeColor=none;fillColor=none;" vertex="1" parent="1">
          <mxGeometry x="236" y="400" width="40" height="30" as="geometry" />
        </mxCell>
        <mxCell id="D_RxxuXNZ5vkz4Wd13xl-14" style="edgeStyle=orthogonalEdgeStyle;rounded=0;orthogonalLoop=1;jettySize=auto;html=1;exitX=0.5;exitY=1;exitDx=0;exitDy=0;entryX=0.5;entryY=0;entryDx=0;entryDy=0;" edge="1" parent="1" source="D_RxxuXNZ5vkz4Wd13xl-13" target="D_RxxuXNZ5vkz4Wd13xl-15">
          <mxGeometry relative="1" as="geometry">
            <mxPoint x="388" y="500" as="targetPoint" />
          </mxGeometry>
        </mxCell>
        <mxCell id="D_RxxuXNZ5vkz4Wd13xl-13" value="inputMassive[i] = Console.ReadLine()" style="rounded=0;whiteSpace=wrap;html=1;fillColor=#FFE6CC;" vertex="1" parent="1">
          <mxGeometry x="306" y="400" width="164" height="60" as="geometry" />
        </mxCell>
        <mxCell id="D_RxxuXNZ5vkz4Wd13xl-16" style="edgeStyle=orthogonalEdgeStyle;rounded=0;orthogonalLoop=1;jettySize=auto;html=1;exitX=0.5;exitY=1;exitDx=0;exitDy=0;" edge="1" parent="1" source="D_RxxuXNZ5vkz4Wd13xl-15">
          <mxGeometry relative="1" as="geometry">
            <mxPoint x="160" y="320" as="targetPoint" />
            <Array as="points">
              <mxPoint x="388" y="570" />
              <mxPoint x="490" y="570" />
              <mxPoint x="490" y="320" />
            </Array>
          </mxGeometry>
        </mxCell>
        <mxCell id="D_RxxuXNZ5vkz4Wd13xl-15" value="i ++" style="rounded=0;whiteSpace=wrap;html=1;fillColor=#FFE6CC;" vertex="1" parent="1">
          <mxGeometry x="306" y="490" width="164" height="60" as="geometry" />
        </mxCell>
        <mxCell id="D_RxxuXNZ5vkz4Wd13xl-18" value="No" style="text;html=1;align=center;verticalAlign=middle;resizable=0;points=[];autosize=1;strokeColor=none;fillColor=none;" vertex="1" parent="1">
          <mxGeometry x="160" y="498" width="40" height="30" as="geometry" />
        </mxCell>
        <mxCell id="D_RxxuXNZ5vkz4Wd13xl-22" style="edgeStyle=orthogonalEdgeStyle;rounded=0;orthogonalLoop=1;jettySize=auto;html=1;exitX=0.5;exitY=1;exitDx=0;exitDy=0;" edge="1" parent="1" source="D_RxxuXNZ5vkz4Wd13xl-20" target="D_RxxuXNZ5vkz4Wd13xl-25">
          <mxGeometry relative="1" as="geometry">
            <mxPoint x="159.5" y="650" as="targetPoint" />
          </mxGeometry>
        </mxCell>
        <mxCell id="D_RxxuXNZ5vkz4Wd13xl-20" value="i = 0" style="rounded=0;whiteSpace=wrap;html=1;fillColor=#FFE6CC;" vertex="1" parent="1">
          <mxGeometry x="100" y="555" width="120" height="60" as="geometry" />
        </mxCell>
        <mxCell id="D_RxxuXNZ5vkz4Wd13xl-23" style="edgeStyle=orthogonalEdgeStyle;rounded=0;orthogonalLoop=1;jettySize=auto;html=1;entryX=0;entryY=0.5;entryDx=0;entryDy=0;" edge="1" parent="1" source="D_RxxuXNZ5vkz4Wd13xl-25" target="D_RxxuXNZ5vkz4Wd13xl-41">
          <mxGeometry relative="1" as="geometry">
            <mxPoint x="306" y="750" as="targetPoint" />
          </mxGeometry>
        </mxCell>
        <mxCell id="D_RxxuXNZ5vkz4Wd13xl-24" style="edgeStyle=orthogonalEdgeStyle;rounded=0;orthogonalLoop=1;jettySize=auto;html=1;entryX=0.5;entryY=0;entryDx=0;entryDy=0;" edge="1" parent="1" source="D_RxxuXNZ5vkz4Wd13xl-25" target="D_RxxuXNZ5vkz4Wd13xl-33">
          <mxGeometry relative="1" as="geometry" />
        </mxCell>
        <mxCell id="D_RxxuXNZ5vkz4Wd13xl-25" value="while i &amp;lt; massiveLength" style="rhombus;whiteSpace=wrap;html=1;fillColor=#CCFFCC;" vertex="1" parent="1">
          <mxGeometry x="80" y="670" width="160" height="160" as="geometry" />
        </mxCell>
        <mxCell id="D_RxxuXNZ5vkz4Wd13xl-26" value="Yes" style="text;html=1;align=center;verticalAlign=middle;resizable=0;points=[];autosize=1;strokeColor=none;fillColor=none;" vertex="1" parent="1">
          <mxGeometry x="236" y="720" width="40" height="30" as="geometry" />
        </mxCell>
        <mxCell id="D_RxxuXNZ5vkz4Wd13xl-27" style="edgeStyle=orthogonalEdgeStyle;rounded=0;orthogonalLoop=1;jettySize=auto;html=1;exitX=0.5;exitY=1;exitDx=0;exitDy=0;entryX=0.5;entryY=0;entryDx=0;entryDy=0;" edge="1" parent="1" source="D_RxxuXNZ5vkz4Wd13xl-44" target="D_RxxuXNZ5vkz4Wd13xl-30">
          <mxGeometry relative="1" as="geometry">
            <mxPoint x="608" y="840" as="targetPoint" />
            <mxPoint x="608" y="800" as="sourcePoint" />
          </mxGeometry>
        </mxCell>
        <mxCell id="D_RxxuXNZ5vkz4Wd13xl-29" style="edgeStyle=orthogonalEdgeStyle;rounded=0;orthogonalLoop=1;jettySize=auto;html=1;exitX=0.5;exitY=1;exitDx=0;exitDy=0;" edge="1" parent="1" source="D_RxxuXNZ5vkz4Wd13xl-30">
          <mxGeometry relative="1" as="geometry">
            <mxPoint x="160" y="640" as="targetPoint" />
            <Array as="points">
              <mxPoint x="592" y="910" />
              <mxPoint x="710" y="910" />
              <mxPoint x="710" y="640" />
            </Array>
          </mxGeometry>
        </mxCell>
        <mxCell id="D_RxxuXNZ5vkz4Wd13xl-30" value="i ++" style="rounded=0;whiteSpace=wrap;html=1;fillColor=#FFE6CC;" vertex="1" parent="1">
          <mxGeometry x="510" y="830" width="164" height="60" as="geometry" />
        </mxCell>
        <mxCell id="D_RxxuXNZ5vkz4Wd13xl-31" value="No" style="text;html=1;align=center;verticalAlign=middle;resizable=0;points=[];autosize=1;strokeColor=none;fillColor=none;" vertex="1" parent="1">
          <mxGeometry x="160" y="818" width="40" height="30" as="geometry" />
        </mxCell>
        <mxCell id="D_RxxuXNZ5vkz4Wd13xl-32" style="edgeStyle=orthogonalEdgeStyle;rounded=0;orthogonalLoop=1;jettySize=auto;html=1;exitX=0.5;exitY=1;exitDx=0;exitDy=0;entryX=0.5;entryY=0;entryDx=0;entryDy=0;" edge="1" parent="1" source="D_RxxuXNZ5vkz4Wd13xl-33" target="D_RxxuXNZ5vkz4Wd13xl-45">
          <mxGeometry relative="1" as="geometry">
            <mxPoint x="159.5" y="970" as="targetPoint" />
          </mxGeometry>
        </mxCell>
        <mxCell id="D_RxxuXNZ5vkz4Wd13xl-33" value="i = 0" style="rounded=0;whiteSpace=wrap;html=1;fillColor=#FFE6CC;" vertex="1" parent="1">
          <mxGeometry x="100" y="875" width="120" height="60" as="geometry" />
        </mxCell>
        <mxCell id="D_RxxuXNZ5vkz4Wd13xl-39" style="edgeStyle=orthogonalEdgeStyle;rounded=0;orthogonalLoop=1;jettySize=auto;html=1;entryX=0;entryY=0.5;entryDx=0;entryDy=0;" edge="1" parent="1" source="D_RxxuXNZ5vkz4Wd13xl-41" target="D_RxxuXNZ5vkz4Wd13xl-44">
          <mxGeometry relative="1" as="geometry">
            <mxPoint x="516" y="750" as="targetPoint" />
          </mxGeometry>
        </mxCell>
        <mxCell id="D_RxxuXNZ5vkz4Wd13xl-40" style="edgeStyle=orthogonalEdgeStyle;rounded=0;orthogonalLoop=1;jettySize=auto;html=1;entryX=0;entryY=0.5;entryDx=0;entryDy=0;" edge="1" parent="1" source="D_RxxuXNZ5vkz4Wd13xl-41" target="D_RxxuXNZ5vkz4Wd13xl-30">
          <mxGeometry relative="1" as="geometry">
            <mxPoint x="370" y="875" as="targetPoint" />
            <Array as="points">
              <mxPoint x="370" y="860" />
            </Array>
          </mxGeometry>
        </mxCell>
        <mxCell id="D_RxxuXNZ5vkz4Wd13xl-41" value="length(inputMassive[i]) &amp;lt; filterLength" style="rhombus;whiteSpace=wrap;html=1;fillColor=#CCFFCC;" vertex="1" parent="1">
          <mxGeometry x="290" y="670" width="160" height="160" as="geometry" />
        </mxCell>
        <mxCell id="D_RxxuXNZ5vkz4Wd13xl-42" value="Yes" style="text;html=1;align=center;verticalAlign=middle;resizable=0;points=[];autosize=1;strokeColor=none;fillColor=none;" vertex="1" parent="1">
          <mxGeometry x="446" y="720" width="40" height="30" as="geometry" />
        </mxCell>
        <mxCell id="D_RxxuXNZ5vkz4Wd13xl-43" value="No" style="text;html=1;align=center;verticalAlign=middle;resizable=0;points=[];autosize=1;strokeColor=none;fillColor=none;" vertex="1" parent="1">
          <mxGeometry x="370" y="818" width="40" height="30" as="geometry" />
        </mxCell>
        <mxCell id="D_RxxuXNZ5vkz4Wd13xl-44" value="resultLength ++" style="rounded=0;whiteSpace=wrap;html=1;fillColor=#FFE6CC;" vertex="1" parent="1">
          <mxGeometry x="510" y="720" width="164" height="60" as="geometry" />
        </mxCell>
        <mxCell id="D_RxxuXNZ5vkz4Wd13xl-50" style="edgeStyle=orthogonalEdgeStyle;rounded=0;orthogonalLoop=1;jettySize=auto;html=1;entryX=0.5;entryY=0;entryDx=0;entryDy=0;" edge="1" parent="1" source="D_RxxuXNZ5vkz4Wd13xl-45" target="D_RxxuXNZ5vkz4Wd13xl-48">
          <mxGeometry relative="1" as="geometry" />
        </mxCell>
        <mxCell id="D_RxxuXNZ5vkz4Wd13xl-45" value="resultMassive = new str [resultLength]&lt;br&gt;j = 0" style="shape=parallelogram;perimeter=parallelogramPerimeter;whiteSpace=wrap;html=1;fixedSize=1;fillColor=#F2FCFF;" vertex="1" parent="1">
          <mxGeometry x="11" y="970" width="298" height="60" as="geometry" />
        </mxCell>
        <mxCell id="D_RxxuXNZ5vkz4Wd13xl-46" style="edgeStyle=orthogonalEdgeStyle;rounded=0;orthogonalLoop=1;jettySize=auto;html=1;entryX=0;entryY=0.5;entryDx=0;entryDy=0;" edge="1" parent="1" source="D_RxxuXNZ5vkz4Wd13xl-48" target="D_RxxuXNZ5vkz4Wd13xl-54">
          <mxGeometry relative="1" as="geometry">
            <mxPoint x="290" y="1150" as="targetPoint" />
          </mxGeometry>
        </mxCell>
        <mxCell id="D_RxxuXNZ5vkz4Wd13xl-47" style="edgeStyle=orthogonalEdgeStyle;rounded=0;orthogonalLoop=1;jettySize=auto;html=1;entryX=0.5;entryY=0;entryDx=0;entryDy=0;" edge="1" parent="1" source="D_RxxuXNZ5vkz4Wd13xl-48" target="D_RxxuXNZ5vkz4Wd13xl-68">
          <mxGeometry relative="1" as="geometry">
            <mxPoint x="160" y="1320" as="targetPoint" />
          </mxGeometry>
        </mxCell>
        <mxCell id="D_RxxuXNZ5vkz4Wd13xl-48" value="while i &amp;lt; arrayLength" style="rhombus;whiteSpace=wrap;html=1;fillColor=#CCFFCC;" vertex="1" parent="1">
          <mxGeometry x="80" y="1070" width="160" height="160" as="geometry" />
        </mxCell>
        <mxCell id="D_RxxuXNZ5vkz4Wd13xl-49" value="No" style="text;html=1;align=center;verticalAlign=middle;resizable=0;points=[];autosize=1;strokeColor=none;fillColor=none;" vertex="1" parent="1">
          <mxGeometry x="160" y="1218" width="40" height="30" as="geometry" />
        </mxCell>
        <mxCell id="D_RxxuXNZ5vkz4Wd13xl-51" value="Yes" style="text;html=1;align=center;verticalAlign=middle;resizable=0;points=[];autosize=1;strokeColor=none;fillColor=none;" vertex="1" parent="1">
          <mxGeometry x="230" y="1120" width="40" height="30" as="geometry" />
        </mxCell>
        <mxCell id="D_RxxuXNZ5vkz4Wd13xl-52" style="edgeStyle=orthogonalEdgeStyle;rounded=0;orthogonalLoop=1;jettySize=auto;html=1;entryX=0;entryY=0.5;entryDx=0;entryDy=0;" edge="1" parent="1" source="D_RxxuXNZ5vkz4Wd13xl-54" target="D_RxxuXNZ5vkz4Wd13xl-61">
          <mxGeometry relative="1" as="geometry">
            <mxPoint x="500" y="1150" as="targetPoint" />
          </mxGeometry>
        </mxCell>
        <mxCell id="D_RxxuXNZ5vkz4Wd13xl-65" style="edgeStyle=orthogonalEdgeStyle;rounded=0;orthogonalLoop=1;jettySize=auto;html=1;entryX=0;entryY=0.5;entryDx=0;entryDy=0;" edge="1" parent="1" source="D_RxxuXNZ5vkz4Wd13xl-54" target="D_RxxuXNZ5vkz4Wd13xl-63">
          <mxGeometry relative="1" as="geometry">
            <Array as="points">
              <mxPoint x="360" y="1260" />
            </Array>
          </mxGeometry>
        </mxCell>
        <mxCell id="D_RxxuXNZ5vkz4Wd13xl-54" value="length(inputMassive[i]) &amp;lt; filterLength" style="rhombus;whiteSpace=wrap;html=1;fillColor=#CCFFCC;" vertex="1" parent="1">
          <mxGeometry x="280" y="1070" width="160" height="160" as="geometry" />
        </mxCell>
        <mxCell id="D_RxxuXNZ5vkz4Wd13xl-55" value="Yes" style="text;html=1;align=center;verticalAlign=middle;resizable=0;points=[];autosize=1;strokeColor=none;fillColor=none;" vertex="1" parent="1">
          <mxGeometry x="436" y="1120" width="40" height="30" as="geometry" />
        </mxCell>
        <mxCell id="D_RxxuXNZ5vkz4Wd13xl-56" value="No" style="text;html=1;align=center;verticalAlign=middle;resizable=0;points=[];autosize=1;strokeColor=none;fillColor=none;" vertex="1" parent="1">
          <mxGeometry x="360" y="1218" width="40" height="30" as="geometry" />
        </mxCell>
        <mxCell id="D_RxxuXNZ5vkz4Wd13xl-60" value="Написать программу, которая из имеющегося массива строк формирует новый массив из строк, длина которых меньше, либо равна 3 символам. Первоначальный массив можно ввести с клавиатуры, либо задать на старте выполнения алгоритма. При решении не рекомендуется пользоваться коллекциями, лучше обойтись исключительно массивами." style="rounded=1;whiteSpace=wrap;html=1;fillColor=#FFFFBD;" vertex="1" parent="1">
          <mxGeometry x="414" y="30" width="366" height="100" as="geometry" />
        </mxCell>
        <mxCell id="D_RxxuXNZ5vkz4Wd13xl-64" style="edgeStyle=orthogonalEdgeStyle;rounded=0;orthogonalLoop=1;jettySize=auto;html=1;exitX=0.5;exitY=1;exitDx=0;exitDy=0;entryX=0.5;entryY=0;entryDx=0;entryDy=0;" edge="1" parent="1" source="D_RxxuXNZ5vkz4Wd13xl-61" target="D_RxxuXNZ5vkz4Wd13xl-63">
          <mxGeometry relative="1" as="geometry" />
        </mxCell>
        <mxCell id="D_RxxuXNZ5vkz4Wd13xl-61" value="resultMassive[j] = inputMassive[i]&lt;br&gt;j ++" style="rounded=0;whiteSpace=wrap;html=1;fillColor=#FFE6CC;" vertex="1" parent="1">
          <mxGeometry x="510" y="1120" width="200" height="60" as="geometry" />
        </mxCell>
        <mxCell id="D_RxxuXNZ5vkz4Wd13xl-66" style="edgeStyle=orthogonalEdgeStyle;rounded=0;orthogonalLoop=1;jettySize=auto;html=1;exitX=0.5;exitY=1;exitDx=0;exitDy=0;" edge="1" parent="1" source="D_RxxuXNZ5vkz4Wd13xl-63">
          <mxGeometry relative="1" as="geometry">
            <mxPoint x="160" y="1050" as="targetPoint" />
            <Array as="points">
              <mxPoint x="610" y="1310" />
              <mxPoint x="730" y="1310" />
              <mxPoint x="730" y="1050" />
            </Array>
          </mxGeometry>
        </mxCell>
        <mxCell id="D_RxxuXNZ5vkz4Wd13xl-63" value="i ++" style="rounded=0;whiteSpace=wrap;html=1;fillColor=#FFE6CC;" vertex="1" parent="1">
          <mxGeometry x="510" y="1230" width="200" height="60" as="geometry" />
        </mxCell>
        <mxCell id="D_RxxuXNZ5vkz4Wd13xl-67" value="Finish" style="ellipse;whiteSpace=wrap;html=1;fillColor=#B0E3DA;" vertex="1" parent="1">
          <mxGeometry x="99.5" y="1450" width="120" height="80" as="geometry" />
        </mxCell>
        <mxCell id="D_RxxuXNZ5vkz4Wd13xl-69" style="edgeStyle=orthogonalEdgeStyle;rounded=0;orthogonalLoop=1;jettySize=auto;html=1;exitX=0.5;exitY=1;exitDx=0;exitDy=0;entryX=0.5;entryY=0;entryDx=0;entryDy=0;" edge="1" parent="1" source="D_RxxuXNZ5vkz4Wd13xl-68" target="D_RxxuXNZ5vkz4Wd13xl-67">
          <mxGeometry relative="1" as="geometry" />
        </mxCell>
        <mxCell id="D_RxxuXNZ5vkz4Wd13xl-68" value="Вывод resultMassive" style="rounded=0;whiteSpace=wrap;html=1;fillColor=#FFE6CC;" vertex="1" parent="1">
          <mxGeometry x="100" y="1360" width="120" height="60" as="geometry" />
        </mxCell>
      </root>
    </mxGraphModel>
  </diagram>
</mxfile>
